<?xml version="1.0" encoding="utf-8"?>
<!-- Generator: Adobe Illustrator 23.0.1, SVG Export Plug-In . SVG Version: 6.00 Build 0)  -->
<svg version="1.1" id="レイヤー_1" xmlns="http://www.w3.org/2000/svg" xmlns:xlink="http://www.w3.org/1999/xlink" x="0px"
	 y="0px" viewBox="0 0 256 256" style="enable-background:new 0 0 256 256;" xml:space="preserve">
<style type="text/css">
	.st0{fill:#077B7B;}
</style>
<path class="st0" d="M35.8,101.1H15.5c-7.8,0-14.2-6.3-14.2-14.2V66.7c0-7.8,6.3-14.2,14.2-14.2h20.3c7.8,0,14.2,6.3,14.2,14.2V87
	C49.9,94.8,43.6,101.1,35.8,101.1z"/>
<path class="st0" d="M138.2,101.1h-20.3c-7.8,0-14.2-6.3-14.2-14.2V66.7c0-7.8,6.3-14.2,14.2-14.2h20.3c7.8,0,14.2,6.3,14.2,14.2V87
	C152.4,94.8,146,101.1,138.2,101.1z"/>
<path class="st0" d="M240.6,49.9h-20.3c-7.8,0-14.2-6.3-14.2-14.2V15.5c0-7.8,6.3-14.2,14.2-14.2h20.3c7.8,0,14.2,6.3,14.2,14.2
	v20.3C254.8,43.6,248.4,49.9,240.6,49.9z"/>
<path class="st0" d="M240.6,101.1h-20.3c-7.8,0-14.2-6.3-14.2-14.2V66.7c0-7.8,6.3-14.2,14.2-14.2h20.3c7.8,0,14.2,6.3,14.2,14.2V87
	C254.8,94.8,248.4,101.1,240.6,101.1z"/>
<path class="st0" d="M35.8,152.3H15.5c-7.8,0-14.2-6.3-14.2-14.2v-20.3c0-7.8,6.3-14.2,14.2-14.2h20.3c7.8,0,14.2,6.3,14.2,14.2
	v20.3C49.9,146,43.6,152.3,35.8,152.3z"/>
<path class="st0" d="M87,203.6H66.7c-7.8,0-14.2-6.3-14.2-14.2v-20.3c0-7.8,6.3-14.2,14.2-14.2H87c7.8,0,14.2,6.3,14.2,14.2v20.3
	C101.2,197.2,94.8,203.6,87,203.6z"/>
<path class="st0" d="M138.2,152.3h-20.3c-7.8,0-14.2-6.3-14.2-14.2v-20.3c0-7.8,6.3-14.2,14.2-14.2h20.3c7.8,0,14.2,6.3,14.2,14.2
	v20.3C152.4,146,146,152.3,138.2,152.3z"/>
<path class="st0" d="M138.2,203.6h-20.3c-7.8,0-14.2-6.3-14.2-14.2v-20.3c0-7.8,6.3-14.2,14.2-14.2h20.3c7.8,0,14.2,6.3,14.2,14.2
	v20.3C152.4,197.2,146,203.6,138.2,203.6z"/>
<path class="st0" d="M189.4,203.6h-20.3c-7.8,0-14.2-6.3-14.2-14.2v-20.3c0-7.8,6.3-14.2,14.2-14.2h20.3c7.8,0,14.2,6.3,14.2,14.2
	v20.3C203.6,197.2,197.2,203.6,189.4,203.6z"/>
<path class="st0" d="M240.6,203.6h-20.3c-7.8,0-14.2-6.3-14.2-14.2v-20.3c0-7.8,6.3-14.2,14.2-14.2h20.3c7.8,0,14.2,6.3,14.2,14.2
	v20.3C254.8,197.2,248.4,203.6,240.6,203.6z"/>
<path class="st0" d="M35.8,254.8H15.5c-7.8,0-14.2-6.3-14.2-14.2v-20.3c0-7.8,6.3-14.2,14.2-14.2h20.3c7.8,0,14.2,6.3,14.2,14.2
	v20.3C49.9,248.4,43.6,254.8,35.8,254.8z"/>
<path class="st0" d="M87,254.8H66.7c-7.8,0-14.2-6.3-14.2-14.2v-20.3c0-7.8,6.3-14.2,14.2-14.2H87c7.8,0,14.2,6.3,14.2,14.2v20.3
	C101.2,248.4,94.8,254.8,87,254.8z"/>
<path class="st0" d="M138.2,254.8h-20.3c-7.8,0-14.2-6.3-14.2-14.2v-20.3c0-7.8,6.3-14.2,14.2-14.2h20.3c7.8,0,14.2,6.3,14.2,14.2
	v20.3C152.4,248.4,146,254.8,138.2,254.8z"/>
<path class="st0" d="M166.8,25L166.8,25c-6.5,0-11.9-5.3-11.9-11.9v0c0-6.5,5.3-11.9,11.9-11.9h0c6.5,0,11.9,5.3,11.9,11.9v0
	C178.6,19.7,173.3,25,166.8,25z"/>
<path class="st0" d="M166.8,49.9L166.8,49.9c-6.5,0-11.9-5.3-11.9-11.9v0c0-6.5,5.3-11.9,11.9-11.9h0c6.5,0,11.9,5.3,11.9,11.9v0
	C178.6,44.6,173.3,49.9,166.8,49.9z"/>
<path class="st0" d="M191.7,25L191.7,25c-6.5,0-11.9-5.3-11.9-11.9v0c0-6.5,5.3-11.9,11.9-11.9h0c6.5,0,11.9,5.3,11.9,11.9v0
	C203.6,19.7,198.3,25,191.7,25z"/>
<path class="st0" d="M191.7,49.9L191.7,49.9c-6.5,0-11.9-5.3-11.9-11.9v0c0-6.5,5.3-11.9,11.9-11.9h0c6.5,0,11.9,5.3,11.9,11.9v0
	C203.6,44.6,198.3,49.9,191.7,49.9z"/>
<path class="st0" d="M166.8,76.2L166.8,76.2c-6.5,0-11.9-5.3-11.9-11.9v0c0-6.5,5.3-11.9,11.9-11.9h0c6.5,0,11.9,5.3,11.9,11.9v0
	C178.6,70.9,173.3,76.2,166.8,76.2z"/>
<path class="st0" d="M166.8,101.1L166.8,101.1c-6.5,0-11.9-5.3-11.9-11.9v0c0-6.5,5.3-11.9,11.9-11.9h0c6.5,0,11.9,5.3,11.9,11.9v0
	C178.6,95.8,173.3,101.1,166.8,101.1z"/>
<path class="st0" d="M191.7,76.2L191.7,76.2c-6.5,0-11.9-5.3-11.9-11.9v0c0-6.5,5.3-11.9,11.9-11.9h0c6.5,0,11.9,5.3,11.9,11.9v0
	C203.6,70.9,198.3,76.2,191.7,76.2z"/>
<path class="st0" d="M191.7,101.1L191.7,101.1c-6.5,0-11.9-5.3-11.9-11.9v0c0-6.5,5.3-11.9,11.9-11.9h0c6.5,0,11.9,5.3,11.9,11.9v0
	C203.6,95.8,198.3,101.1,191.7,101.1z"/>
<path class="st0" d="M166.8,127.4L166.8,127.4c-6.5,0-11.9-5.3-11.9-11.9v0c0-6.5,5.3-11.9,11.9-11.9h0c6.5,0,11.9,5.3,11.9,11.9v0
	C178.6,122.1,173.3,127.4,166.8,127.4z"/>
<path class="st0" d="M166.8,152.3L166.8,152.3c-6.5,0-11.9-5.3-11.9-11.9v0c0-6.5,5.3-11.9,11.9-11.9h0c6.5,0,11.9,5.3,11.9,11.9v0
	C178.6,147,173.3,152.3,166.8,152.3z"/>
<path class="st0" d="M191.7,127.4L191.7,127.4c-6.5,0-11.9-5.3-11.9-11.9v0c0-6.5,5.3-11.9,11.9-11.9h0c6.5,0,11.9,5.3,11.9,11.9v0
	C203.6,122.1,198.3,127.4,191.7,127.4z"/>
<path class="st0" d="M191.7,152.3L191.7,152.3c-6.5,0-11.9-5.3-11.9-11.9v0c0-6.5,5.3-11.9,11.9-11.9h0c6.5,0,11.9,5.3,11.9,11.9v0
	C203.6,147,198.3,152.3,191.7,152.3z"/>
<path class="st0" d="M218,127.4L218,127.4c-6.5,0-11.9-5.3-11.9-11.9v0c0-6.5,5.3-11.9,11.9-11.9h0c6.5,0,11.9,5.3,11.9,11.9v0
	C229.8,122.1,224.5,127.4,218,127.4z"/>
<path class="st0" d="M218,152.3L218,152.3c-6.5,0-11.9-5.3-11.9-11.9v0c0-6.5,5.3-11.9,11.9-11.9h0c6.5,0,11.9,5.3,11.9,11.9v0
	C229.8,147,224.5,152.3,218,152.3z"/>
<path class="st0" d="M242.9,127.4L242.9,127.4c-6.5,0-11.9-5.3-11.9-11.9v0c0-6.5,5.3-11.9,11.9-11.9h0c6.5,0,11.9,5.3,11.9,11.9v0
	C254.8,122.1,249.5,127.4,242.9,127.4z"/>
<path class="st0" d="M242.9,152.3L242.9,152.3c-6.5,0-11.9-5.3-11.9-11.9v0c0-6.5,5.3-11.9,11.9-11.9h0c6.5,0,11.9,5.3,11.9,11.9v0
	C254.8,147,249.5,152.3,242.9,152.3z"/>
<path class="st0" d="M64.4,76.2L64.4,76.2c-6.5,0-11.9-5.3-11.9-11.9v0c0-6.5,5.3-11.9,11.9-11.9h0c6.5,0,11.9,5.3,11.9,11.9v0
	C76.2,70.9,70.9,76.2,64.4,76.2z"/>
<path class="st0" d="M64.4,101.1L64.4,101.1c-6.5,0-11.9-5.3-11.9-11.9v0c0-6.5,5.3-11.9,11.9-11.9h0c6.5,0,11.9,5.3,11.9,11.9v0
	C76.2,95.8,70.9,101.1,64.4,101.1z"/>
<path class="st0" d="M89.3,76.2L89.3,76.2c-6.5,0-11.9-5.3-11.9-11.9v0c0-6.5,5.3-11.9,11.9-11.9h0c6.5,0,11.9,5.3,11.9,11.9v0
	C101.2,70.9,95.8,76.2,89.3,76.2z"/>
<path class="st0" d="M89.3,101.1L89.3,101.1c-6.5,0-11.9-5.3-11.9-11.9v0c0-6.5,5.3-11.9,11.9-11.9h0c6.5,0,11.9,5.3,11.9,11.9v0
	C101.2,95.8,95.8,101.1,89.3,101.1z"/>
<path class="st0" d="M64.4,128L64.4,128c-6.5,0-11.9-5.3-11.9-11.9v0c0-6.5,5.3-11.9,11.9-11.9h0c6.5,0,11.9,5.3,11.9,11.9v0
	C76.2,122.7,70.9,128,64.4,128z"/>
<path class="st0" d="M64.4,153L64.4,153c-6.5,0-11.9-5.3-11.9-11.9v0c0-6.5,5.3-11.9,11.9-11.9h0c6.5,0,11.9,5.3,11.9,11.9v0
	C76.2,147.7,70.9,153,64.4,153z"/>
<path class="st0" d="M89.3,128L89.3,128c-6.5,0-11.9-5.3-11.9-11.9v0c0-6.5,5.3-11.9,11.9-11.9h0c6.5,0,11.9,5.3,11.9,11.9v0
	C101.2,122.7,95.8,128,89.3,128z"/>
<path class="st0" d="M89.3,153L89.3,153c-6.5,0-11.9-5.3-11.9-11.9v0c0-6.5,5.3-11.9,11.9-11.9h0c6.5,0,11.9,5.3,11.9,11.9v0
	C101.2,147.7,95.8,153,89.3,153z"/>
<path class="st0" d="M13.5,178.9L13.5,178.9c-6.5,0-11.9-5.3-11.9-11.9v0c0-6.5,5.3-11.9,11.9-11.9h0c6.5,0,11.9,5.3,11.9,11.9v0
	C25.3,173.6,20,178.9,13.5,178.9z"/>
<path class="st0" d="M13.5,203.9L13.5,203.9c-6.5,0-11.9-5.3-11.9-11.9v0c0-6.5,5.3-11.9,11.9-11.9h0c6.5,0,11.9,5.3,11.9,11.9v0
	C25.3,198.6,20,203.9,13.5,203.9z"/>
<path class="st0" d="M38.4,178.9L38.4,178.9c-6.5,0-11.9-5.3-11.9-11.9v0c0-6.5,5.3-11.9,11.9-11.9h0c6.5,0,11.9,5.3,11.9,11.9v0
	C50.3,173.6,44.9,178.9,38.4,178.9z"/>
<path class="st0" d="M38.4,203.9L38.4,203.9c-6.5,0-11.9-5.3-11.9-11.9v0c0-6.5,5.3-11.9,11.9-11.9h0c6.5,0,11.9,5.3,11.9,11.9v0
	C50.3,198.6,44.9,203.9,38.4,203.9z"/>
</svg>
