<?xml version="1.0" encoding="utf-8"?>
<!-- Generator: Adobe Illustrator 23.0.2, SVG Export Plug-In . SVG Version: 6.00 Build 0)  -->
<svg version="1.1" id="レイヤー_1" xmlns="http://www.w3.org/2000/svg" xmlns:xlink="http://www.w3.org/1999/xlink" x="0px"
	 y="0px" viewBox="0 0 630 630" style="enable-background:new 0 0 630 630;" xml:space="preserve">
<style type="text/css">
	.st0{fill:#0066CC;}
	.st1{fill:#FFFFFF;}
</style>
<rect class="st0" width="630" height="630"/>
<path class="st1" d="M422.6,389.1c6.4,10.4,14.6,18,29.2,18c12.2,0,20.1-6.1,20.1-14.6c0-10.1-8-13.8-21.5-19.6l-7.4-3.2
	c-21.4-9.1-35.6-20.5-35.6-44.6c0-22.2,16.9-39.1,43.4-39.1c18.8,0,32.4,6.5,42.1,23.7l-23,14.8c-5-9.1-10.5-12.7-19-12.7
	c-8.6,0-14.1,5.5-14.1,12.7c0,8.9,5.5,12.5,18.2,18l7.4,3.1c25.1,10.8,39.4,21.8,39.4,46.5c0,26.6-21,41.2-49,41.2
	c-27.5,0-45.2-13.1-54-30.2L422.6,389.1z M318,391.6c4.6,8.2,8.9,15.2,19,15.2c9.8,0,15.9-3.8,15.9-18.6V287.6h29.6v101.1
	c0,30.6-17.9,44.6-44.2,44.6c-23.7,0-37.5-12.2-44.4-27L318,391.6z"/>
</svg>
