<?xml version="1.0" encoding="utf-8"?>
<!-- Generator: Adobe Illustrator 23.0.2, SVG Export Plug-In . SVG Version: 6.00 Build 0)  -->
<svg version="1.1" id="_x32_" xmlns="http://www.w3.org/2000/svg" xmlns:xlink="http://www.w3.org/1999/xlink" x="0px" y="0px"
	 viewBox="0 0 512 512" style="enable-background:new 0 0 512 512;" xml:space="preserve">
<style type="text/css">
	.st0{fill:#333333;}
</style>
<path class="st0" d="M256,0C114.6,0,0,114.6,0,256s114.6,256,256,256s256-114.6,256-256S397.4,0,256,0z M286.3,348.2l-41.1,41.1
	c-6.3,6.3-13.4,11.5-21,15.5c-7.6,4-15.6,6.7-23.8,8.3c-16.4,3.2-33.4,1.6-49.1-4.8c-10.4-4.2-20.2-10.6-28.7-19
	c-6.3-6.3-11.5-13.4-15.5-21c-4-7.6-6.8-15.6-8.3-23.8c-3.2-16.3-1.6-33.4,4.8-49.1c4.2-10.5,10.6-20.3,19-28.7l41.1-41
	c8.3-8.3,21.7-8.3,30,0c8.3,8.3,8.3,21.7,0,30l-41.1,41.1c-3.3,3.3-5.9,6.9-7.9,10.7c-2,3.8-3.4,7.9-4.2,12.1
	c-1.6,8.4-0.8,17.2,2.4,25.1c2.2,5.3,5.4,10.3,9.7,14.6c3.3,3.3,6.9,5.9,10.7,7.9c3.8,2,7.9,3.4,12.1,4.3c8.4,1.6,17.2,0.8,25.1-2.4
	c5.3-2.2,10.3-5.4,14.6-9.7l41.1-41.1c8.3-8.3,21.7-8.3,30,0C294.6,326.5,294.6,339.9,286.3,348.2z M232.4,309.6
	c-8.3,8.3-21.7,8.3-30,0c-8.3-8.3-8.3-21.7,0-30l77.2-77.1c8.3-8.3,21.7-8.3,30,0c8.3,8.3,8.3,21.7,0,30L232.4,309.6z M408.3,216.6
	c-4.2,10.4-10.6,20.3-19,28.7l-41.1,41.1c-8.3,8.3-21.7,8.3-30,0c-8.3-8.3-8.3-21.7,0-30l41.1-41c3.3-3.3,5.9-6.9,7.9-10.7
	c2-3.8,3.4-7.9,4.2-12.1c1.6-8.4,0.8-17.2-2.4-25.1c-2.2-5.3-5.4-10.2-9.7-14.6c-3.3-3.3-6.9-5.9-10.7-7.9c-3.8-2-7.9-3.4-12.1-4.2
	c-8.4-1.6-17.2-0.8-25.1,2.4c-5.3,2.2-10.3,5.4-14.6,9.7l-41.1,41.1c-8.3,8.3-21.7,8.3-30,0c-8.3-8.3-8.3-21.7,0-30l41.1-41.1
	c6.3-6.3,13.4-11.5,21-15.5c7.6-4,15.6-6.7,23.8-8.3c16.4-3.2,33.4-1.6,49.1,4.7c10.4,4.2,20.3,10.6,28.7,19
	c6.3,6.3,11.5,13.4,15.5,21c4,7.6,6.8,15.6,8.3,23.8C416.2,183.8,414.6,200.9,408.3,216.6z"/>
</svg>
