<svg xmlns="http://www.w3.org/2000/svg" viewBox="0 0 117 120"><defs><style>.cls-1{fill:#333;}</style></defs><title>アセット 3</title><g id="レイヤー_2" data-name="レイヤー 2"><g id="svg2"><path id="path14" class="cls-1" d="M20,111l3,9v-1h1l-1-3,2,1-1-3,2,1,1-6H21Zm59,1v-7l5,1,1-7,8,1,2-4,4-8,1,2-1-2,2-4-1-4H99L91,69h3V66h1l3-1v1l3-2-2-4,3-4-1-4,2-3-3-3,2-3V40l-4-1,1-2h6l-3-1,2-1V34l-3,1-1-1,2-3-3,2,2,2H96l1-3-2-3H93l1-2H91l2-4,6-7,11-6,2,2,1-2,4-2-3-6-1-2-9,1-4,3L96,5l-2,6H87l-1,7-3,1-5,4L63,24l2-5-4,1-1-3H58l2-3V9l-1,1-7,3-1-2H49l-2,3-7,3-4,2-1-3H29l-1,4,1,3,3,2-2,3,2,1,2-3,4,2-6,9-3,1-4,4-3,4-4,5v2l1,2H17l-6-1V51L7,49,5,53v3l3,1v3H4v8l1,2L3,71v2H1L0,79l3,8,5,2,13,15h2l-1,3h2v1l5-1,1-5H27V97l2-1-1,1v3l3,1-1-2,1-3,1,3,2-4-1-6,2,3,3-2,5,2v5h2l-2,1v2l-2,1V99l-1,4,8-1h5l1,4,4-2-1,2,2,1v4l2,1v1l3-3,3,5,4-2,3,4-1,1,2-2h3Zm-47,0h3l2-2,2-10H36l-2,2Z"/></g></g></svg>