<?xml version="1.0" encoding="utf-8"?>
<!-- Generator: Adobe Illustrator 23.0.2, SVG Export Plug-In . SVG Version: 6.00 Build 0)  -->
<svg version="1.1" id="Capa_1" xmlns="http://www.w3.org/2000/svg" xmlns:xlink="http://www.w3.org/1999/xlink" x="0px" y="0px"
	 viewBox="0 0 612 612" style="enable-background:new 0 0 612 612;" xml:space="preserve">
<style type="text/css">
	.st0{fill-rule:evenodd;clip-rule:evenodd;fill:#333333;}
</style>
<path class="st0" d="M306,0C137,0,0,137,0,306s137,306,306,306s306-137,306-306S475,0,306,0z M493.4,227.5l0.3,11.8
	c0,120.5-91.7,259.5-259.5,259.5c-51.5,0-99.4-15.1-139.8-41c7.1,0.8,14.4,1.3,21.8,1.3c42.7,0,82.1-14.5,113.3-39
	c-39.9-0.7-73.6-27.1-85.2-63.3c5.6,1.1,11.3,1.7,17.2,1.7c8.3,0,16.4-1.1,24-3.2c-41.7-8.4-73.1-45.3-73.1-89.4v-1.1
	c12.3,6.8,26.4,10.9,41.3,11.4c-24.4-16.3-40.6-44.3-40.6-75.9c0-16.7,4.5-32.4,12.3-45.8c45,55.2,112.2,91.5,188,95.3
	c-1.6-6.7-2.4-13.6-2.4-20.8c0-50.3,40.8-91.2,91.2-91.2c26.3,0,49.9,11.1,66.6,28.8c20.8-4.1,40.3-11.7,58-22.1
	c-6.8,21.3-21.3,39.1-40.1,50.4c18.4-2.2,36-7.1,52.4-14.4C526.9,198.6,511.4,214.7,493.4,227.5z"/>
</svg>
